<?xml version="1.0" standalone="no"?>
<!DOCTYPE svg PUBLIC "-//W3C//DTD SVG 20010904//EN"
 "http://www.w3.org/TR/2001/REC-SVG-20010904/DTD/svg10.dtd">
<svg version="1.0" xmlns="http://www.w3.org/2000/svg"
 width="50px" height="50px" viewBox="0 0 512.000000 512.000000"
 preserveAspectRatio="xMidYMid meet">

<g transform="translate(0.000000,512.000000) scale(0.100000,-0.100000)"
fill="#ffffff" stroke="none">
<path d="M452 5105 c-171 -37 -325 -162 -399 -322 -56 -121 -54 -17 -51 -2256
l3 -2062 22 -66 c59 -173 206 -318 378 -372 l70 -22 2085 0 2085 0 70 22 c175
55 323 203 378 378 l22 70 0 2085 0 2085 -22 70 c-54 172 -199 319 -372 378
l-66 22 -2070 2 c-1723 1 -2081 -1 -2133 -12z m4189 -373 c39 -20 62 -41 84
-77 l30 -48 0 -2047 0 -2047 -30 -48 c-22 -36 -45 -57 -84 -77 l-53 -28 -2028
0 -2028 0 -53 28 c-39 20 -62 41 -84 77 l-30 48 0 2047 0 2047 30 48 c22 36
45 57 84 77 l53 28 2028 0 2028 0 53 -28z"/>
<path d="M2484 4445 c-17 -8 -43 -27 -56 -44 -14 -16 -143 -260 -288 -543
-144 -282 -266 -517 -270 -521 -4 -5 -269 -51 -588 -102 -352 -57 -595 -100
-617 -111 -73 -34 -112 -136 -85 -220 10 -31 101 -127 437 -465 l425 -426 -91
-581 c-50 -320 -91 -592 -91 -604 1 -40 37 -104 75 -134 28 -21 51 -29 94 -32
l56 -4 538 272 537 272 535 -271 c477 -241 541 -271 583 -271 84 0 163 65 178
145 4 21 -28 253 -86 620 l-92 588 425 426 c336 338 427 434 437 465 27 84
-12 186 -85 220 -22 11 -265 54 -617 111 -319 51 -584 97 -588 102 -4 4 -126
239 -270 521 -145 283 -274 527 -288 543 -46 55 -138 74 -208 44z m291 -977
c225 -440 236 -456 319 -476 22 -6 232 -41 466 -78 234 -37 427 -69 429 -71 3
-2 -144 -153 -326 -336 -183 -183 -337 -345 -342 -360 -19 -49 -12 -110 58
-552 37 -236 67 -431 66 -433 -2 -2 -189 92 -417 208 -386 195 -418 210 -468
210 -50 0 -82 -15 -468 -210 -228 -116 -415 -210 -417 -208 -1 2 29 197 66
433 70 442 77 503 58 552 -5 15 -159 177 -342 360 -182 183 -329 334 -326 336
2 2 195 34 429 71 234 37 444 72 466 78 83 20 94 36 319 476 116 227 212 412
215 412 3 0 100 -185 215 -412z"/>
</g>
</svg>
